<svg width="12" height="12" viewBox="0 0 12 12" fill="none" xmlns="http://www.w3.org/2000/svg">
<path d="M6.78335 6L11.3889 1.39444C11.4799 1.28816 11.5275 1.15145 11.5221 1.01163C11.5167 0.871815 11.4587 0.739182 11.3598 0.640241C11.2608 0.541299 11.1282 0.483337 10.9884 0.477936C10.8486 0.472535 10.7118 0.520094 10.6056 0.611109L6.00001 5.21666L1.39446 0.605553C1.28984 0.50094 1.14796 0.442169 1.00001 0.442169C0.852067 0.442169 0.710181 0.50094 0.605568 0.605553C0.500955 0.710167 0.442183 0.852053 0.442183 0.999998C0.442183 1.14794 0.500955 1.28983 0.605568 1.39444L5.21668 6L0.605568 10.6056C0.547411 10.6554 0.500178 10.7166 0.466831 10.7856C0.433485 10.8545 0.414746 10.9296 0.411791 11.0061C0.408836 11.0826 0.421728 11.1589 0.449658 11.2302C0.477588 11.3015 0.519954 11.3662 0.574095 11.4204C0.628237 11.4745 0.692985 11.5169 0.764277 11.5448C0.835569 11.5727 0.911865 11.5856 0.988375 11.5827C1.06489 11.5797 1.13996 11.561 1.20888 11.5276C1.27781 11.4943 1.3391 11.447 1.3889 11.3889L6.00001 6.78333L10.6056 11.3889C10.7118 11.4799 10.8486 11.5275 10.9884 11.5221C11.1282 11.5167 11.2608 11.4587 11.3598 11.3598C11.4587 11.2608 11.5167 11.1282 11.5221 10.9884C11.5275 10.8485 11.4799 10.7118 11.3889 10.6056L6.78335 6Z" fill="black"/>
</svg>
